Coordinates
version=1
nRows=13
nColumns=22
inDegrees=yes

Units are S.I. units (second, meters, Newtons, ...)
If the header above contains a line with 'inDegrees', this indicates whether rotational values are in degrees (yes) or radians (no).

endheader
time	pelvis_tilt	pelvis_list	pelvis_rotation	pelvis_tx	pelvis_ty	pelvis_tz	hip_flexion_r	hip_adduction_r	hip_rotation_r	knee_angle_r	ankle_angle_r	subtalar_angle_r	hip_flexion_l	hip_adduction_l	hip_rotation_l	knee_angle_l	ankle_angle_l	subtalar_angle_l	lumbar_extension	lumbar_bending	lumbar_rotation
      2.12000000	      3.71904282	     -5.21097535	     52.79521926	      1.00379430	      0.98695701	      0.69494939	     24.59378096	      3.12288656	      2.65649290	    -23.77448517	      0.98448801	     12.84675751	     -2.56353213	     -5.17857956	     -7.45427969	    -47.39481072	     -7.20320357	      1.12632063	     -3.55796998	      4.01616654	     -8.75225815
      2.13000000	      3.96707225	     -5.31646097	     53.44089181	      1.01130997	      0.98888989	      0.68680703	     23.83659890	      3.30165422	      2.08783945	    -23.82926555	      1.43703351	     12.23199264	     -0.98605538	     -6.18323144	     -8.27472802	    -50.16498677	     -7.62556855	      0.60308517	     -3.63136520	      4.15929369	     -8.62906065
      2.14000000	      4.24595416	     -5.37766532	     54.12844387	      1.01851417	      0.99077802	      0.67865666	     23.00924693	      3.46854741	      1.48742785	    -23.82744293	      1.88296151	     11.81887884	      0.56086452	     -7.15739911	     -8.94128857	    -52.76444844	     -7.50927023	      0.15156031	     -3.77509279	      4.30467436	     -8.47607846
      2.15000000	      4.47246492	     -5.38942655	     54.82288763	      1.02542542	      0.99257287	      0.67049675	     22.16774454	      3.57537530	      0.94784349	    -23.79429431	      2.36834551	     11.28003363	      2.09797781	     -7.99558267	     -9.48071505	    -55.12090251	     -7.05694635	     -0.55658985	     -3.93230448	      4.37247845	     -8.25908940
      2.16000000	      4.70233659	     -5.34837744	     55.54601063	      1.03199484	      0.99436272	      0.66224703	     21.26783998	      3.64486220	      0.39942378	    -23.71936051	      2.82972121	     10.96091088	      3.57061742	     -8.73684774	     -9.91299709	    -57.19341858	     -6.24392363	     -1.13918264	     -4.13554087	      4.42891276	     -8.03135896
      2.17000000	      4.85358321	     -5.26915411	     56.25473631	      1.03827862	      0.99608410	      0.65394675	     20.37311687	      3.64147710	     -0.06388276	    -23.61445222	      3.33161931	     10.58682837	      5.01761514	     -9.30043548	    -10.28003121	    -58.94096166	     -5.26682525	     -1.91472794	     -4.31351275	      4.40083223	     -7.74668723
      2.18000000	      4.97459900	     -5.15733233	     56.97427915	      1.04422793	      0.99779393	      0.64555539	     19.45947116	      3.58504701	     -0.54447309	    -23.48007464	      3.81033109	     10.36573401	      6.41241062	     -9.72799398	    -10.58148816	    -60.35794755	     -4.14177804	     -2.56996451	     -4.49093074	      4.34698629	     -7.44358100
      2.19000000	      5.03815083	     -5.01499780	     57.69847902	      1.04982846	      0.99947077	      0.63712563	     18.54407525	      3.46380494	     -0.97896133	    -23.31739249	      4.27650653	     10.19642292	      7.76806196	     -9.98426641	    -10.82074932	    -61.43949515	     -2.94552724	     -3.23954900	     -4.65506575	      4.24233526	     -7.14104380
      2.20000000	      5.03861217	     -4.85201564	     58.39061009	      1.05518013	      1.00109717	      0.62864983	     17.63556546	      3.28382644	     -1.38933012	    -23.12881065	      4.75988962	     10.05233909	      9.06938732	    -10.08874483	    -11.07387445	    -62.17839787	     -1.75838887	     -4.00640068	     -4.78326305	      4.08051884	     -6.79722011
      2.21000000	      5.00931929	     -4.66235868	     59.08275287	      1.06019430	      1.00268109	      0.62017442	     16.71789294	      3.05664386	     -1.81821410	    -22.92351936	      5.22557433	      9.96595348	     10.31313044	    -10.06405016	    -11.29918851	    -62.60718197	     -0.59310909	     -4.72044705	     -4.92423297	      3.89426845	     -6.44011501
      2.22000000	      4.94928122	     -4.46705385	     59.76196705	      1.06496276	      1.00419241	      0.61170608	     15.79777415	      2.80489137	     -2.23545585	    -22.68319050	      5.66833656	      9.90819391	     11.50807689	     -9.94549444	    -11.53914352	    -62.73873686	      0.51921560	     -5.41820984	     -5.04636197	      3.68782614	     -6.07870990
      2.23000000	      4.87959563	     -4.28021571	     60.44425756	      1.06948671	      1.00559849	      0.60330183	     14.88740889	      2.55141331	     -2.67326426	    -22.42329759	      6.07829136	      9.86790713	     12.67136818	     -9.77533233	    -11.78361377	    -62.60923354	      1.57558068	     -5.99447195	     -5.16225225	      3.48235049	     -5.70690000
      2.24000000	      4.80301120	     -4.11402630	     61.14629761	      1.07378310	      1.00687145	      0.59495027	     13.98547555	      2.30649342	     -3.12187002	    -22.12743983	      6.44631496	      9.83547187	     13.81842329	     -9.58277624	    -12.05020031	    -62.24221234	      2.55602197	     -6.52906295	     -5.25671205	      3.29042504	     -5.37499519
